<?xml version="1.0" encoding="iso-8859-1"?>
<!-- Generator: Adobe Illustrator 16.0.0, SVG Export Plug-In . SVG Version: 6.00 Build 0)  -->
<!DOCTYPE svg PUBLIC "-//W3C//DTD SVG 1.1//EN" "http://www.w3.org/Graphics/SVG/1.1/DTD/svg11.dtd">
              <svg id="Ecommerce" enable-background="new 0 0 48 48" height="512" viewBox="0 0 48 48" width="512" xmlns="http://www.w3.org/2000/svg"><g><path d="m25 7.03c0-.552-.447-1-1-1-5.514 0-10 4.486-10 10 0 .552.447 1 1 1s1-.448 1-1c0-4.411 3.589-8 8-8 .553 0 1-.448 1-1z"/><path d="m22.246 45.79h1.754 1.754c1.652 0 2.999-1.345 3-3v-1.099c1.032-.475 1.755-1.512 1.755-2.721v-3.72c.176-.382.281-.802.281-1.25 0-1.016.226-2 .671-2.927.441-.919 1.086-1.752 1.864-2.409 3.746-3.165 5.709-7.989 5.25-12.909-.7-7.375-6.813-13.189-14.265-13.525l-.31-.01-.354.011c-7.408.335-13.521 6.149-14.222 13.526-.458 4.917 1.505 9.742 5.251 12.906.778.658 1.423 1.491 1.864 2.41.445.927.671 1.911.671 2.927 0 .447.105.868.281 1.25v3.721c0 1.209.722 2.247 1.755 2.721v1.1c.001 1.653 1.348 2.998 3 2.998zm4.508-3c0 .552-.449 1-1 1h-1.754-1.754c-.551 0-1-.449-1-1v-.82h2.754 2.754zm1.755-3.819c0 .551-.448 1-1 1h-3.509-3.509c-.552 0-1-.449-1-1v-2.068c.232.058.47.097.719.097h3.79 3.79c.249 0 .487-.039.719-.097zm-9.299-4.971c0-1.318-.292-2.595-.868-3.793-.563-1.171-1.385-2.233-2.376-3.071-3.247-2.742-4.948-6.926-4.551-11.191.607-6.389 5.903-11.426 12.275-11.715l.31-.01.265.009c6.417.29 11.713 5.327 12.319 11.714.398 4.267-1.303 8.451-4.55 11.193-.991.838-1.813 1.9-2.376 3.071-.576 1.198-.868 2.475-.868 3.793 0 .551-.448 1-1 1h-3.79-3.79c-.552 0-1-.449-1-1z"/></g></svg>
                   
