<?xml version="1.0" encoding="iso-8859-1"?>
<!-- Generator: Adobe Illustrator 16.0.0, SVG Export Plug-In . SVG Version: 6.00 Build 0)  -->
<!DOCTYPE svg PUBLIC "-//W3C//DTD SVG 1.1//EN" "http://www.w3.org/Graphics/SVG/1.1/DTD/svg11.dtd">
<svg version="1.1" xmlns="http://www.w3.org/2000/svg" xmlns:xlink="http://www.w3.org/1999/xlink" x="0px" y="0px"
                 viewBox="0 0 491.312 491.312" style="enable-background:new 0 0 491.312 491.312;" xml:space="preserve">
                  <path d="M285.656,297.112c-30.872,0-56,25.128-56,56s25.128,56,56,56s56-25.128,56-56S316.528,297.112,285.656,297.112z
                     M285.656,393.112c-22.056,0-40-17.944-40-40c0-22.056,17.944-40,40-40c22.056,0,40,17.944,40,40
                    C325.656,375.168,307.712,393.112,285.656,393.112z"/>
                  <path d="M381.656,153.112c-30.872,0-56,25.128-56,56s25.128,56,56,56s56-25.128,56-56S412.528,153.112,381.656,153.112z
                     M381.656,249.112c-22.056,0-40-17.944-40-40c0-22.056,17.944-40,40-40c22.056,0,40,17.944,40,40
                    C421.656,231.168,403.712,249.112,381.656,249.112z"/>
                  <path d="M101.656,137.112c-30.872,0-56,25.128-56,56s25.128,56,56,56s56-25.128,56-56S132.528,137.112,101.656,137.112z
                     M101.656,233.112c-22.056,0-40-17.944-40-40c0-22.056,17.944-40,40-40c22.056,0,40,17.944,40,40
                    C141.656,215.168,123.712,233.112,101.656,233.112z"/>
                  <polygon points="491.312,326.768 480,315.456 445.656,349.8 411.312,315.456 400,326.768 434.344,361.112 400,395.456 
                    411.312,406.768 445.656,372.424 480,406.768 491.312,395.456 456.968,361.112     "/>
                  <polygon points="91.312,14.768 80,3.456 45.656,37.8 11.312,3.456 0,14.768 34.344,49.112 0,83.456 11.312,94.768 45.656,60.424 
                    80,94.768 91.312,83.456 56.968,49.112     "/>
                  <polygon points="459.312,54.768 448,43.456 413.656,77.8 379.312,43.456 368,54.768 402.344,89.112 368,123.456 379.312,134.768 
                    413.656,100.424 448,134.768 459.312,123.456 424.968,89.112    "/>
                  <path d="M297.24,137.96l-48-24c-2.08-1.04-4.496-1.12-6.64-0.232s-3.8,2.664-4.52,4.856l-16,48l15.168,5.064l9.944-29.84
                    c0.76,1.52,1.456,2.896,2.032,3.968c4.56,8.52,6.232,18.128,5.584,32.104c-1.44,31.104-12.528,62.44-31.232,88.24
                    c-3.728,5.136-8.48,10.112-13.432,15.176c-14.672,15.016-33.424,25.688-53.28,36.984C128.608,334.36,99.608,351.136,83,381.352
                    c-6.592-2.72-13.792-4.24-21.344-4.24c-30.872,0-56,25.128-56,56s25.128,56,56,56s56-25.128,56-56
                    c0-17.608-8.184-33.32-20.928-43.592c14.368-26.552,40.408-41.6,68.048-57.328c19.944-11.352,40.568-23.088,56.816-39.704
                    c5.384-5.512,10.576-10.96,14.936-16.976c20.512-28.296,32.688-62.712,34.264-96.896c0.512-11.096,0.12-25.552-7.048-39.512
                    l26.336,13.168L297.24,137.96z M101.656,433.112c0,22.056-17.944,40-40,40c-22.056,0-40-17.944-40-40c0-22.056,17.944-40,40-40
                    C83.712,393.112,101.656,411.056,101.656,433.112z"/>
                  <path d="M190.384,2.2l-12.776,9.608c2.256,3.016,5.2,7.376,8.512,12.624l13.528-8.544C196.064,10.208,192.944,5.6,190.384,2.2z"/>
                  <path d="M238.6,87l-14.496,6.768c2.632,5.648,4.672,10.408,6.072,14.144l14.976-5.6C243.616,98.184,241.408,93.04,238.6,87z"/>
                  <path d="M208.096,29.792L194.32,37.92c2.576,4.384,5.232,9.008,7.888,13.744l13.952-7.832
                    C213.456,39,210.736,34.272,208.096,29.792z"/>
                  <path d="M223.936,58.04l-14.104,7.528c2.536,4.768,5.016,9.504,7.336,14.064l14.264-7.248
                    C229.064,67.728,226.544,62.896,223.936,58.04z"/>
              </svg>            
