<?xml version="1.0" encoding="iso-8859-1"?>
<!-- Generator: Adobe Illustrator 16.0.0, SVG Export Plug-In . SVG Version: 6.00 Build 0)  -->
<!DOCTYPE svg PUBLIC "-//W3C//DTD SVG 1.1//EN" "http://www.w3.org/Graphics/SVG/1.1/DTD/svg11.dtd">
<svg enable-background="new 0 0 32 32" height="512" viewBox="0 0 32 32" width="512" xmlns="http://www.w3.org/2000/svg"><g><path d="m30.197 28.331-7.843-7.555c1.802-2.057 2.789-4.634 2.789-7.361 0-3.058-1.234-5.931-3.475-8.089-4.603-4.435-12.092-4.434-16.693 0-2.241 2.158-3.475 5.031-3.475 8.089s1.234 5.931 3.475 8.09c2.301 2.218 5.324 3.326 8.347 3.325 2.725 0 5.445-.91 7.642-2.712l7.892 7.602c.888.883 2.257-.532 1.341-1.389zm-23.88-8.216c-1.86-1.792-2.884-4.171-2.884-6.7 0-2.528 1.024-4.908 2.884-6.699 1.931-1.861 4.468-2.791 7.005-2.791s5.074.93 7.005 2.791c1.86 1.792 2.884 4.171 2.884 6.699 0 2.529-1.024 4.908-2.884 6.7-3.863 3.721-10.148 3.721-14.01 0z"/><path d="m18.154 12.449h-3.866v-3.862c0-.533-.433-.965-.966-.965-.534 0-.966.432-.966.965v3.862h-3.866c-.534 0-.966.432-.966.965s.432.966.966.966h3.866v3.862c0 .533.433.965.966.965.534 0 .966-.432.966-.965v-3.862h3.866c.534 0 .966-.432.966-.965s-.433-.966-.966-.966z"/></g></svg>
            
