<?xml version="1.0" encoding="iso-8859-1"?>
<!-- Generator: Adobe Illustrator 16.0.0, SVG Export Plug-In . SVG Version: 6.00 Build 0)  -->
<!DOCTYPE svg PUBLIC "-//W3C//DTD SVG 1.1//EN" "http://www.w3.org/Graphics/SVG/1.1/DTD/svg11.dtd">
<svg xmlns="http://www.w3.org/2000/svg" id="&#x421;&#x43B;&#x43E;&#x439;_1" data-name="&#x421;&#x43B;&#x43E;&#x439; 1" viewBox="0 0 128 128" width="512" height="512"><path d="M14,50c.4,0,.79,0,1.18-.06L16,54.38A2,2,0,0,0,20,53.62L19.08,49a14,14,0,0,0,8.28-17.22L54.21,18.92a12.15,12.15,0,0,0,2.18,2.35l-22,31.59a2,2,0,0,0,3.28,2.28L59.89,23.26a11.29,11.29,0,0,0,2.11.56V41a2,2,0,0,0,4,0V23.82a11.29,11.29,0,0,0,2.11-.56L90.36,55.14a2,2,0,1,0,3.28-2.28l-22-31.59a12.15,12.15,0,0,0,2.18-2.35l26.85,12.89A14,14,0,0,0,108.92,49L108,53.62a2,2,0,1,0,3.92.76l.86-4.44c.39,0,.78.06,1.18.06a14,14,0,1,0-11.62-21.8L75.52,15.31A11.67,11.67,0,0,0,76,12a12,12,0,0,0-24,0,11.67,11.67,0,0,0,.48,3.31L25.62,28.2A14,14,0,1,0,14,50ZM114,26a10,10,0,1,1-10,10A10,10,0,0,1,114,26ZM64,4a8,8,0,1,1-8,8A8,8,0,0,1,64,4ZM14,26A10,10,0,1,1,4,36,10,10,0,0,1,14,26Z"/><path d="M110.71,94.45A12.67,12.67,0,0,0,116,84V67a6.85,6.85,0,0,0-7-7H96a6.85,6.85,0,0,0-7,7V84a12.65,12.65,0,0,0,5.24,10.41,24.91,24.91,0,0,0-3.78,1.66,2,2,0,1,0,1.92,3.51A20.9,20.9,0,0,1,102.51,97C114.16,97,124,107.08,124,119a2,2,0,0,0,4,0A26.37,26.37,0,0,0,110.71,94.45ZM93,67a2.84,2.84,0,0,1,3-3h13a2.84,2.84,0,0,1,3,3v5H93Zm0,17V76h19v8c0,5.13-4.08,9-9.49,9S93,89.13,93,84Z"/><path d="M34.86,99.26a2,2,0,0,0,1.81-3.57c-.48-.25-2.44-1.08-2.94-1.26A12.65,12.65,0,0,0,39,84V67a6.85,6.85,0,0,0-7-7H19a6.85,6.85,0,0,0-7,7V84a12.65,12.65,0,0,0,5.24,10.41A26,26,0,0,0,0,119a2,2,0,0,0,4,0A21.78,21.78,0,0,1,25.51,97,20.69,20.69,0,0,1,34.86,99.26ZM16,67a2.84,2.84,0,0,1,3-3H32a2.84,2.84,0,0,1,3,3v5H16Zm0,17V76H35v8c0,5.13-4.08,9-9.49,9S16,89.13,16,84Z"/><path d="M73.5,93.8A17.31,17.31,0,0,0,82,79V56a9,9,0,0,0-9-9H55a9,9,0,0,0-9,9V79a17.45,17.45,0,0,0,8.61,14.72A33.14,33.14,0,0,0,30.5,126a2,2,0,0,0,4,0A29.23,29.23,0,0,1,64,96.42,29.57,29.57,0,0,1,93.5,126a2,2,0,0,0,4,0A33.63,33.63,0,0,0,73.5,93.8ZM50,56a5,5,0,0,1,5-5H73a5,5,0,0,1,5,5v7H50Zm0,23V67H78V79c0,7.27-6.35,13.42-13.88,13.42S50,86.27,50,79Z"/></svg>
                    
