<?xml version="1.0" encoding="iso-8859-1"?>
<!-- Generator: Adobe Illustrator 16.0.0, SVG Export Plug-In . SVG Version: 6.00 Build 0)  -->
<!DOCTYPE svg PUBLIC "-//W3C//DTD SVG 1.1//EN" "http://www.w3.org/Graphics/SVG/1.1/DTD/svg11.dtd">
              <svg enable-background="new 0 0 64 64" height="512" viewBox="0 0 64 64" width="512" xmlns="http://www.w3.org/2000/svg"><path d="m33 19v-2h3v-3c0-1.654-1.346-3-3-3h-2c-.552 0-1-.449-1-1v-1h3c.552 0 1 .449 1 1h2c0-1.654-1.346-3-3-3v-2h-2v2h-3v3c0 1.654 1.346 3 3 3h2c.552 0 1 .449 1 1v1h-3c-.552 0-1-.449-1-1h-2c0 1.654 1.346 3 3 3v2z"/><path d="m62.618 47-5-10h-13.974c2.044-1.651 3.356-4.174 3.356-7v-1h-7c-2.826 0-5.349 1.312-7 3.356v-9.406c5.598-.508 10-5.222 10-10.95 0-6.065-4.935-11-11-11s-11 4.935-11 11c0 5.728 4.402 10.442 10 10.949v5.406c-1.651-2.043-4.174-3.355-7-3.355h-7v1c0 4.962 4.037 9 9 9h5v2h-1.382-3.236-20l-5 10h3.618v16h52v-16zm-36.618-14c-3.521 0-6.442-2.612-6.929-6h4.929c3.521 0 6.442 2.612 6.929 6zm14-2h4.929c-.486 3.388-3.408 6-6.929 6h-4.929c.487-3.388 3.408-6 6.929-6zm-17-19c0-4.962 4.037-9 9-9s9 4.038 9 9-4.037 9-9 9-9-4.038-9-9zm8 27h7 18.382l3 6h-26.764l-3-6zm-23.382 0h18.764l-3 6h-18.764zm-.618 8h17.618l2.382-4.764v18.764h-20zm48 14h-26v-18.764l2.382 4.764h23.618z"/><path d="m53 53h-15v6h15zm-2 4h-11v-2h11z"/><path d="m9 53h2v2h-2z"/><path d="m9 57h2v2h-2z"/><path d="m9 49h2v2h-2z"/><path d="m49 33h2v-19h-2.233l4.233-7.056 4.233 7.056h-2.233v9h2v-7h3.767l-7.767-12.944-7.767 12.944h3.767z"/><path d="m55 25h2v2h-2z"/><path d="m55 29h2v2h-2z"/><path d="m6 23h2v-9h-2.233l4.233-7.056 4.233 7.056h-2.233v19h2v-17h3.767l-7.767-12.944-7.767 12.944h3.767z"/><path d="m6 25h2v2h-2z"/><path d="m6 29h2v2h-2z"/><path d="m46 41h2v2h-2z"/><path d="m50 41h2v2h-2z"/><path d="m54 41h2v2h-2z"/><path d="m8 41h2v2h-2z"/><path d="m12 41h2v2h-2z"/><path d="m16 41h2v2h-2z"/></svg>
                 
