<svg id="quotes" height="512" viewBox="0 0 512 512" width="512" xmlns="http://www.w3.org/2000/svg"><path d="m459.677 152.278c-20.423-23.734-49.704-36.278-84.677-36.278-63.411 0-115 51.589-115 115 0 61.67 48.793 112.157 109.802 114.884-1.712 21.616-13.958 42.324-14.091 42.547-.925 1.544-.949 3.467-.062 5.033.887 1.567 2.549 2.536 4.351 2.536 23.775 0 56.354-18.093 82.997-46.093 29.871-31.391 47.003-69.264 47.003-103.907 0-38.261-10.485-70.669-30.323-93.722zm-23.924 190.737c-21.237 22.318-46.98 38.279-67.037 42.104 4.652-9.805 11.284-26.814 11.284-44.119 0-2.762-2.238-5-5-5-57.897 0-105-47.103-105-105s47.103-105 105-105c64.767 0 105 45.981 105 120 0 32.103-16.128 67.463-44.247 97.015zm-298.753-227.015c-63.411 0-115 51.589-115 115 0 61.67 48.793 112.157 109.802 114.884-1.713 21.616-13.958 42.324-14.091 42.547-.925 1.544-.949 3.467-.062 5.033.888 1.567 2.55 2.536 4.351 2.536 23.775 0 56.354-18.093 82.997-46.093 29.871-31.391 47.003-69.264 47.003-103.907 0-38.261-10.486-70.669-30.323-93.722-20.423-23.734-49.704-36.278-84.677-36.278zm60.753 227.015c-21.237 22.318-46.98 38.279-67.038 42.104 4.653-9.805 11.285-26.814 11.285-44.119 0-2.762-2.239-5-5-5-57.897 0-105-47.103-105-105s47.103-105 105-105c64.766 0 105 45.981 105 120 0 32.103-16.127 67.463-44.247 97.015z" fill="rgb(0,0,0)"/></svg>